<svg width="57" height="44" viewBox="0 0 57 44" fill="none" xmlns="http://www.w3.org/2000/svg">
<path d="M12.6406 15.8906C11.9115 15.8906 11.2604 16.0469 10.6875 16.3594C10.1146 16.6615 9.625 17.1042 9.21875 17.6875C8.8125 18.2708 8.5 18.9844 8.28125 19.8281C8.07292 20.6615 7.96875 21.6094 7.96875 22.6719C7.96875 24.1094 8.15104 25.3177 8.51562 26.2969C8.88021 27.276 9.43229 28.0156 10.1719 28.5156C10.9219 29.0156 11.8594 29.2656 12.9844 29.2656C14.0052 29.2656 14.9844 29.125 15.9219 28.8438C16.8698 28.5625 17.8229 28.224 18.7812 27.8281V33.0469C17.7708 33.4948 16.7344 33.8177 15.6719 34.0156C14.6198 34.2135 13.5 34.3125 12.3125 34.3125C9.83333 34.3125 7.80208 33.8229 6.21875 32.8438C4.64583 31.8542 3.48438 30.4844 2.73438 28.7344C1.99479 26.9844 1.625 24.9531 1.625 22.6406C1.625 20.9115 1.86458 19.3281 2.34375 17.8906C2.83333 16.4531 3.54688 15.2083 4.48438 14.1562C5.42188 13.0938 6.57812 12.276 7.95312 11.7031C9.33854 11.1198 10.9219 10.8281 12.7031 10.8281C13.8073 10.8281 14.9688 10.9583 16.1875 11.2188C17.4167 11.4688 18.6146 11.875 19.7812 12.4375L17.8906 17.2969C17.0573 16.901 16.2135 16.5677 15.3594 16.2969C14.5052 16.026 13.599 15.8906 12.6406 15.8906ZM49.6481 34H43.4762V16.2031H37.8981V11.1562H55.2106V16.2031H49.6481V34Z" fill="#262626"/>
<line x1="29.5" y1="2" x2="29.5" y2="41" stroke="#0284C7" stroke-width="5"/>
</svg>
